HIERARCHY
ROOT Hips
{
  OFFSET 0 0 0
  CHANNELS 6 Xposition Yposition Zposition Zrotation Yrotation Xrotation
  JOINT LeftThigh
  {
    OFFSET 8.409438 0 -5.917753
    CHANNELS 3 Zrotation Yrotation Xrotation
    JOINT LeftLeg
    {
      OFFSET 0 0 -42.358652
      CHANNELS 3 Zrotation Yrotation Xrotation
      JOINT LeftFoot
      {
        OFFSET 0 0 -39.357303
        CHANNELS 3 Zrotation Yrotation Xrotation
      }
    }
  }
  JOINT RightThigh
  {
    OFFSET -8.409438 0 -5.917753
    CHANNELS 3 Zrotation Yrotation Xrotation
    JOINT RightLeg
    {
      OFFSET 0 0 -42.358652
      CHANNELS 3 Zrotation Yrotation Xrotation
      JOINT RightFoot
      {
        OFFSET 0 0 -39.357303
        CHANNELS 3 Zrotation Yrotation Xrotation
      }
    }
  }
  JOINT SpineLow
  {
    OFFSET 0 0 4.719101
    CHANNELS 3 Zrotation Yrotation Xrotation
    JOINT SpineMid
    {
      OFFSET 0 0 12.899191
      CHANNELS 3 Zrotation Yrotation Xrotation
      JOINT Chest
      {
        OFFSET 0 0 12.899191
        CHANNELS 3 Zrotation Yrotation Xrotation
        JOINT LeftShoulder
        {
          OFFSET 7.550562 1.41573 9.438202
          CHANNELS 3 Zrotation Yrotation Xrotation
          JOINT LeftArm
          {
            OFFSET 9.155056 0 4.247191
            CHANNELS 3 Zrotation Yrotation Xrotation
            JOINT LeftForearm
            {
              OFFSET 0 0 25.771955
              CHANNELS 3 Zrotation Yrotation Xrotation
              JOINT LeftHand
              {
                OFFSET 0 0 25.197169
                CHANNELS 3 Zrotation Yrotation Xrotation
              }
            }
          }
        }
        JOINT RightShoulder
        {
          OFFSET -7.550562 1.41573 9.438202
          CHANNELS 3 Zrotation Yrotation Xrotation
          JOINT RightArm
          {
            OFFSET -9.155056 0 4.247191
            CHANNELS 3 Zrotation Yrotation Xrotation
            JOINT RightForearm
            {
              OFFSET 0 0 -25.771955
              CHANNELS 3 Zrotation Yrotation Xrotation
              JOINT RightHand
              {
                OFFSET 0 0 -25.197169
                CHANNELS 3 Zrotation Yrotation Xrotation
              }
            }
          }
        }
        JOINT Neck
        {
          OFFSET 0 0 15.101124
          CHANNELS 3 Zrotation Yrotation Xrotation
          JOINT Head
          {
            OFFSET 0 0 11.325843
            CHANNELS 3 Zrotation Yrotation Xrotation
            End Site
            {
              OFFSET 0 0 14.157303
            }
          }
        }
      }
    }
  }
}
MOTION
Frames: 9
Frame Time: 0.01
0.0  101.685394  0.0  2.770006  38.227568  -99.500778  14.26378  -17.58571  4.187956  -7.89548  8.668199  19.615288  1.936542  0.329751  2.435358  -27.302909  23.219278  4.320743  -10.953349  3.562045  13.811215  5.304995  4.048232  -2.005641  0.298329  0.509263  0.75881  0.83145  1.382477  2.080657  0.83145  1.382477  2.080657  5.939644  19.014948  14.41366  117.560271  38.07522  167.002612  -26.395538  11.949508  99.807141  49.598423  -21.032749  -24.396956  19.930734  8.732255  9.14089  -139.846863  69.77922  177.322061  -24.403453  39.934723  -76.31249  89.937114  -21.504851  44.461663  -5.81581  0.32256  2.775105  -4.363417  0.215539  2.084617  
0.0  101.685394  0.0  3.711377  35.961288  -99.4857  13.658101  -16.881593  5.454089  -6.037517  8.535566  19.629721  2.479734  0.374498  2.428304  -28.351478  24.55435  3.512399  -9.535836  3.269504  13.45289  6.543448  4.035955  -2.023717  1.324357  0.838449  0.781598  3.647967  2.247944  2.182378  3.647967  2.247944  2.182378  3.303601  18.389297  15.544739  120.030734  37.128696  160.960084  -30.231517  15.965075  97.082362  45.91441  -24.93421  -19.734934  18.360871  8.910666  7.576634  -162.870379  65.802155  159.970304  -15.741924  48.058369  -63.084093  90.173364  -23.072588  46.564605  -7.174181  -0.702509  3.505586  -5.376749  -0.568151  2.621338  
0.0  101.685394  0.0  4.233893  34.03204  -99.265545  13.569319  -16.394388  5.881838  -4.871368  8.409148  19.765434  3.240453  0.502076  2.444803  -29.664539  25.350303  2.354402  -7.96511  2.965418  13.259602  7.197604  3.980415  -2.07187  1.842004  1.198814  0.690443  5.072419  3.22173  1.978775  5.072419  3.22173  1.978775  2.73819  16.590147  16.425441  123.608166  35.567093  156.579732  -30.482599  19.271419  97.649594  44.909777  -26.924686  -19.290932  19.80378  8.995926  6.457335  -178.39494  61.307383  150.415229  -9.665959  51.169897  -54.069152  91.310307  -21.447772  46.376648  -7.094633  -2.010065  4.075891  -5.307301  -1.555192  3.033747  
0.0  101.685394  0.0  4.323968  32.633866  -99.129743  13.731397  -16.240516  5.962079  -4.367206  8.361197  19.842126  3.653905  0.677241  2.442033  -30.844253  25.636004  1.390676  -6.44455  2.712272  13.227062  7.788388  4.016625  -2.083569  2.208046  1.251389  0.686084  6.075261  3.354285  1.989387  6.075261  3.354285  1.989387  2.802602  14.164388  17.668988  127.105814  32.917684  156.35925  -29.725552  19.339176  98.685247  45.545072  -26.881541  -20.495424  21.174635  10.88829  6.316145  173.407271  56.621139  148.35359  -7.556986  48.438892  -51.713154  91.364  -21.020298  46.233456  -7.003869  -2.408961  3.951692  -5.236806  -1.852381  2.936168  
0.0  101.685394  0.0  4.287566  31.568745  -99.317069  14.355636  -16.259891  6.241263  -4.730211  8.369781  19.685265  3.971342  0.792001  2.459392  -31.127775  25.753332  1.062122  -5.367587  2.591285  13.382046  7.806841  3.996172  -2.127602  2.332906  1.169617  0.779422  6.418125  3.118031  2.242551  6.418125  3.118031  2.242552  4.50919  12.310545  18.179383  129.164032  29.503115  156.881949  -29.749223  16.585348  99.348344  45.47675  -25.238447  -20.497507  23.134218  13.485483  7.19842  168.882891  53.093532  148.387582  -8.724864  43.46748  -50.884037  93.668373  -21.412568  46.359631  -6.383192  -2.386233  3.516396  -4.773155  -1.826705  2.612318  
0.0  101.685394  0.0  4.273134  30.852375  -99.612766  15.572496  -16.266061  6.509612  -5.668615  8.126391  19.551457  4.151658  0.942911  2.503165  -30.713776  25.770173  1.102833  -4.764929  2.575932  13.700076  7.600216  4.087572  -2.137514  2.559051  1.176031  0.849812  7.040106  3.120044  2.445985  7.040106  3.120044  2.445985  5.407076  10.885635  19.240476  130.419001  26.636309  157.157585  -29.339323  13.768131  100.572346  45.647105  -24.074521  -20.090261  23.018027  15.161001  8.249503  165.805966  51.838233  147.603993  -9.352582  42.379246  -48.645592  96.666478  -22.114769  45.751759  -6.581222  -2.800268  3.253264  -4.920185  -2.135592  2.409617  
0.0  101.685394  0.0  4.30537  30.556392  -99.688017  17.272582  -16.20675  6.441305  -7.177311  7.782291  19.408398  3.683843  1.173338  2.374615  -30.330941  25.66599  0.980586  -4.365623  2.545634  14.146045  7.169418  4.244155  -2.133234  2.906233  1.285805  0.9168  7.997887  3.398035  2.658458  7.997887  3.398036  2.658459  5.544493  9.55829  19.982602  130.496598  23.874181  157.479073  -28.613835  12.396483  101.629937  46.471963  -24.186765  -19.809102  22.0453  14.724307  8.166009  163.703656  51.232309  147.526585  -8.511977  42.56933  -45.058109  96.073451  -22.795736  46.225554  -7.691044  -3.675641  2.876905  -5.749135  -2.793518  2.111019  
0.0  101.685394  0.0  4.049758  30.724577  -99.484634  19.15889  -16.316135  5.780006  -8.963527  7.465548  19.219467  3.562848  1.264807  2.451771  -30.107197  25.129399  0.712744  -4.4013  2.586985  14.560717  6.817036  4.371283  -2.08548  3.088325  1.428859  0.913096  8.502831  3.781065  2.676301  8.502831  3.781065  2.676301  6.683276  8.194551  20.243554  129.571188  20.874407  158.131532  -27.64315  13.629347  102.30874  50.153583  -26.019922  -20.369034  19.691316  13.48997  7.751268  168.492518  52.475531  151.459114  -8.468026  41.273682  -43.381131  92.46828  -20.893384  47.610668  -8.753403  -4.774228  2.548539  -6.541439  -3.618099  1.842217  
0.0  101.685394  0.0  3.182843  31.650053  -98.825454  20.609321  -16.707907  4.209834  -10.825452  7.585164  19.141995  3.521081  1.102963  2.321696  -30.777733  23.835337  -0.005645  -4.673805  2.653491  14.883521  6.758817  4.482796  -1.970562  2.926738  1.48098  0.795756  8.056581  3.944451  2.35326  8.056581  3.944451  2.35326  8.025346  7.871302  20.710152  129.827417  18.800258  159.471432  -26.776542  17.661281  103.14486  56.984971  -26.793183  -21.52341  18.726182  12.397643  7.743462  177.824014  55.086088  159.132685  -10.273262  39.522495  -45.032734  91.299979  -19.48634  47.900523  -9.230776  -5.631597  2.296332  -6.896397  -4.259565  1.635989  
